<?xml version="1.0" encoding="utf-8"?>
<!-- Generator: Adobe Illustrator 23.0.3, SVG Export Plug-In . SVG Version: 6.00 Build 0)  -->
<svg version="1.1" id="Layer_1" xmlns="http://www.w3.org/2000/svg" xmlns:xlink="http://www.w3.org/1999/xlink" x="0px" y="0px"
	 width="50px" height="50px" viewBox="0 0 50 50" enable-background="new 0 0 50 50" xml:space="preserve">
<path fill="#0072C6" d="M23.43,0.988L1.284,29.04c-0.702,0.889-0.526,2.182,0.387,2.852l22.146,16.24
	c0.704,0.516,1.661,0.516,2.365,0l22.146-16.24c0.913-0.67,1.089-1.963,0.387-2.852L26.57,0.988
	C25.769-0.026,24.231-0.026,23.43,0.988z"/>
<path opacity="0.4" fill="#FFFFFF" enable-background="new    " d="M27.198,47.388l20.441-14.99c-0.99-1.27-2.47-2.14-4.168-2.275
	l-5.664-7.208c0.058-0.33,0.094-0.668,0.094-1.015c0-3.254-2.646-5.9-5.9-5.9s-5.9,2.646-5.9,5.9c0,0.347,0.036,0.684,0.094,1.015
	l-5.664,7.208C17.496,30.364,15.1,32.905,15.1,36c0,3.254,2.646,5.9,5.9,5.9c0.395,0,0.781-0.041,1.154-0.115l3.989,2.901
	C26.26,45.688,26.643,46.603,27.198,47.388z"/>
<path fill="#3999C6" d="M46.594,35.718L33.123,18.573h-2.246L17.406,35.718l0.212,1.532l13.144,9.559h2.477l13.144-9.559
	L46.594,35.718z"/>
<circle fill="#3999C6" cx="21" cy="36" r="4.9"/>
<circle fill="#3999C6" cx="43" cy="36" r="4.9"/>
<circle fill="#3999C6" cx="32" cy="44" r="4.9"/>
<path fill="#3999C6" d="M32,26.8c-2.702,0-4.9-2.198-4.9-4.899c0-2.702,2.198-4.9,4.9-4.9s4.9,2.198,4.9,4.9
	C36.9,24.602,34.702,26.8,32,26.8z"/>
<polygon opacity="0.25" fill="#FFFFFF" enable-background="new    " points="22.428,35.802 32,32.618 41.572,35.802 32,42.764 "/>
<circle fill="#FFFFFF" cx="21" cy="36" r="2.9"/>
<circle fill="#FFFFFF" cx="43" cy="36" r="2.9"/>
<circle fill="#FFFFFF" cx="32" cy="44" r="2.9"/>
<path fill="#FFFFFF" d="M32,24.899c-1.6,0-2.9-1.301-2.9-2.899c0-1.6,1.301-2.9,2.9-2.9s2.9,1.301,2.9,2.9
	C34.9,23.599,33.6,24.899,32,24.899z"/>
<rect x="17.598" y="27.999" transform="matrix(0.6181 -0.7861 0.7861 0.6181 -12.6756 31.9063)" opacity="0.6" fill="#FFFFFF" enable-background="new    " width="17.804" height="2"/>
<rect x="36.499" y="20.099" transform="matrix(0.7863 -0.6178 0.6178 0.7863 -9.9042 29.364)" opacity="0.6" fill="#FFFFFF" enable-background="new    " width="2" height="17.804"/>
<polygon fill="#FFFFFF" points="43.588,36.809 42.412,35.191 33,42.037 33,22 31,22 31,42.037 21.588,35.191 20.412,36.809 
	31.412,44.809 32.588,44.809 "/>
<circle fill="#7FBA00" cx="21" cy="36" r="1.9"/>
<circle fill="#7FBA00" cx="43" cy="36" r="1.9"/>
<circle fill="#7FBA00" cx="32" cy="44" r="1.9"/>
<circle fill="#7FBA00" cx="32" cy="22" r="1.9"/>
</svg>
