<svg xmlns="http://www.w3.org/2000/svg" class=" fxs-portal-svg" role="presentation" aria-hidden="true" viewBox="-10.5 -9.5 50 50" focusable="false" xmlns:xlink="http://www.w3.org/1999/xlink" xmlns:svg="http://www.w3.org/2000/svg"><g><path class="msportalfx-svg-c10" d="M 34.5 35.865 h 2 V -9.5 h -41 c -1.293 0.167 -3.992 3.3 -3.992 3.751 l 0.059 43.882 A 2.368 2.368 0 0 0 -6.065 40.5 H 31.5 v -0.729 l 3 -3.906 Z" /><path class="msportalfx-svg-c02" d="M -2.718 -7.5 c -1.105 0 -1.58 0.185 -2.507 1 c -2.275 2 0.39 2 1.495 2 H 31.5 v 44.271 l 3 -3.906 V -7.5 H -2.718 Z" /><path class="msportalfx-svg-c03" opacity="0.5" d="M 31.5 39.771 l 3 -3.906 V -7.5 l -3 3 Z" /><g class="msportalfx-svg-c01"><path d="M 7.048 17.125 a 4.9 4.9 0 0 1 1.396 -3.428 L 6.548 11.8 a 7.577 7.577 0 0 0 -2.183 5.325 c 0 2.096 0.853 3.996 2.229 5.373 l 1.896 -1.896 a 4.91 4.91 0 0 1 -1.442 -3.477 Z m 9.838 0 a 4.908 4.908 0 0 1 -1.442 3.477 l 1.896 1.896 a 7.577 7.577 0 0 0 2.229 -5.373 a 7.577 7.577 0 0 0 -2.183 -5.325 l -1.896 1.896 a 4.903 4.903 0 0 1 1.396 3.429 Z" /><path d="M 21.134 17.125 a 9.139 9.139 0 0 1 -2.688 6.479 l 1.896 1.896 a 11.812 11.812 0 0 0 3.475 -8.375 c 0 -3.243 -1.311 -6.185 -3.429 -8.327 l -1.896 1.896 a 9.133 9.133 0 0 1 2.642 6.431 Z m -18.334 0 a 9.139 9.139 0 0 1 2.642 -6.431 L 3.546 8.797 a 11.812 11.812 0 0 0 -3.429 8.327 a 11.81 11.81 0 0 0 3.475 8.375 l 1.896 -1.896 A 9.135 9.135 0 0 1 2.8 17.125 Z m 11.425 -2.164 a 3.12 3.12 0 0 0 -4.516 0 a 3.117 3.117 0 0 0 -0.872 2.164 c 0 0.864 0.35 1.647 0.917 2.213 a 3.117 3.117 0 0 0 2.213 0.917 c 0.864 0 1.647 -0.35 2.213 -0.917 a 3.117 3.117 0 0 0 0.917 -2.213 c 0 -0.841 -0.333 -1.602 -0.872 -2.164 Z" /></g><path class="msportalfx-svg-c10" d="M 34.5 35.865 h 2 V -9.5 h -41 c -1.293 0.167 -3.992 3.3 -3.992 3.751 l 0.059 43.882 A 2.368 2.368 0 0 0 -6.065 40.5 H 31.5 v -0.729 l 3 -3.906 Z" /><path class="msportalfx-svg-c02" d="M -2.718 -7.5 c -1.105 0 -1.58 0.185 -2.507 1 c -2.275 2 0.39 2 1.495 2 H 31.5 v 44.271 l 3 -3.906 V -7.5 H -2.718 Z" /><path class="msportalfx-svg-c03" opacity="0.5" d="M 31.5 39.771 l 3 -3.906 V -7.5 l -3 3 Z" /><g class="msportalfx-svg-c01"><path d="M 7.048 17.125 a 4.9 4.9 0 0 1 1.396 -3.428 L 6.548 11.8 a 7.577 7.577 0 0 0 -2.183 5.325 c 0 2.096 0.853 3.996 2.229 5.373 l 1.896 -1.896 a 4.91 4.91 0 0 1 -1.442 -3.477 Z m 9.838 0 a 4.908 4.908 0 0 1 -1.442 3.477 l 1.896 1.896 a 7.577 7.577 0 0 0 2.229 -5.373 a 7.577 7.577 0 0 0 -2.183 -5.325 l -1.896 1.896 a 4.903 4.903 0 0 1 1.396 3.429 Z" /><path d="M 21.134 17.125 a 9.139 9.139 0 0 1 -2.688 6.479 l 1.896 1.896 a 11.812 11.812 0 0 0 3.475 -8.375 c 0 -3.243 -1.311 -6.185 -3.429 -8.327 l -1.896 1.896 a 9.133 9.133 0 0 1 2.642 6.431 Z m -18.334 0 a 9.139 9.139 0 0 1 2.642 -6.431 L 3.546 8.797 a 11.812 11.812 0 0 0 -3.429 8.327 a 11.81 11.81 0 0 0 3.475 8.375 l 1.896 -1.896 A 9.135 9.135 0 0 1 2.8 17.125 Z m 11.425 -2.164 a 3.12 3.12 0 0 0 -4.516 0 a 3.117 3.117 0 0 0 -0.872 2.164 c 0 0.864 0.35 1.647 0.917 2.213 a 3.117 3.117 0 0 0 2.213 0.917 c 0.864 0 1.647 -0.35 2.213 -0.917 a 3.117 3.117 0 0 0 0.917 -2.213 c 0 -0.841 -0.333 -1.602 -0.872 -2.164 Z" /></g></g></svg>